# xmcd CD database file
# Copyright (C) 1993-1998 Ti Kan
# 
# Track frame offsets:
#     150
#     13335
#     28623
#     41419
#     55338
#     68759
#     83536
#     102887
#     119235
#     138561
# 
# Disc length: 2066 seconds
# 
# Revision: 1
# Processed by: cddbd v1.4b41PL1 Copyright (c) Steve Scherf et al.
# Submitted via: DiscPlay 4.0.4
# 
DISCID=8708100a
DTITLE=Lonesome Highway - Lonesome Highway
DYEAR=1900
DGENRE=
TTITLE0=Stop These Crazy Games
TTITLE1=My Maria
TTITLE2=Daddy's Money
TTITLE3=Love You 'Til My Dying Day
TTITLE4=The Race Is On
TTITLE5=Standing On The Edge
TTITLE6=You Know Better
TTITLE7=Don't Close Your Eyes
TTITLE8=A Woman's Touch
TTITLE9=These Lonesome Highways
EXTD=
EXTT0=
EXTT1=
EXTT2=
EXTT3=
EXTT4=
EXTT5=
EXTT6=
EXTT7=
EXTT8=
EXTT9=
PLAYORDER=
